<?xml version="1.0" encoding="utf-8"?>
<!-- Generator: Adobe Illustrator 18.0.0, SVG Export Plug-In . SVG Version: 6.00 Build 0)  -->
<!DOCTYPE svg PUBLIC "-//W3C//DTD SVG 1.1//EN" "http://www.w3.org/Graphics/SVG/1.1/DTD/svg11.dtd">
<svg version="1.1" id="Layer_1" xmlns="http://www.w3.org/2000/svg" xmlns:xlink="http://www.w3.org/1999/xlink" x="0px" y="0px"
	 viewBox="0 0 860 369.1" enable-background="new 0 0 860 369.1" xml:space="preserve">
<text transform="matrix(1 0 0 1 310.0601 292.9736)" fill="#E34F26" font-family="'Montserrat-Bold'" font-size="136">HTACG</text>
<text transform="matrix(1 0 0 1 404.1851 126.7136)" fill="#E34F26" font-family="'Montserrat-Bold'" font-size="72">member</text>
<path fill="#E34F26" d="M804.6,175.5H312.4c-6.6,0-12-5.4-12-12v-18.3c0-6.6,5.4-12,12-12h492.2c6.6,0,12,5.4,12,12v18.3
	C816.6,170.1,811.2,175.5,804.6,175.5z"/>
<g>
	<path fill="#EF652A" d="M284.8,182L284.8,182c-3.4,0-6.2-2.8-6.2-6.2v-42.9c0-3.4,2.8-6.2,6.2-6.2h0c3.4,0,6.2,2.8,6.2,6.2v42.9
		C291,179.2,288.2,182,284.8,182z"/>
	<path fill="#EF652A" d="M297.2,182L297.2,182c-3.4,0-6.2-2.8-6.2-6.2v-42.9c0-3.4,2.8-6.2,6.2-6.2h0c3.4,0,6.2,2.8,6.2,6.2v42.9
		C303.4,179.2,300.6,182,297.2,182z"/>
	<path fill="#EF652A" d="M309.6,182L309.6,182c-3.4,0-6.2-2.8-6.2-6.2v-42.9c0-3.4,2.8-6.2,6.2-6.2h0c3.4,0,6.2,2.8,6.2,6.2v42.9
		C315.8,179.2,313,182,309.6,182z"/>
</g>
<g>
	<path fill="#E34F26" d="M266.8,243L46,262.6V46.1l220.9,19.7l25,88.8"/>
	<path fill="#EF652A" d="M272.6,144.1l-19.7-71.5L63.7,55.8v88.3"/>
	<path fill="#EBEBEB" d="M145.8,144.1v36l-27.8,2.4v-38.4H91.1v0.5v67.7l7.2-0.5l74.9-6.7v-61H145.8z M216.4,144.1v0.5l-8.2,30.2
		l-21.6,1.9v14.4l0,12.5l42.7-3.4l15.4-55.7v-0.5H216.4z"/>
	<path fill="#FFFFFF" d="M145.8,144.6h27.4V111l35,3.4l8.2,30.2h28.3l-15.4-55.7l-4.8-0.5L153,82.2l-7.2-1v7.7V144.6z M91.1,144.6
		h16.8H118l0,0l0-65.8l0,0l0,0l-5.8-0.5l-13.9-1.4l-7.2-0.5V144.6z"/>
</g>
</svg>
