<?xml version="1.0" encoding="utf-8"?>
<!-- Generator: Adobe Illustrator 18.0.0, SVG Export Plug-In . SVG Version: 6.00 Build 0)  -->
<!DOCTYPE svg PUBLIC "-//W3C//DTD SVG 1.1//EN" "http://www.w3.org/Graphics/SVG/1.1/DTD/svg11.dtd">
<svg version="1.1" id="Layer_1" xmlns="http://www.w3.org/2000/svg" xmlns:xlink="http://www.w3.org/1999/xlink" x="0px" y="0px"
	 viewBox="0 0 860 369.1" enable-background="new 0 0 860 369.1" xml:space="preserve">
<path fill="#EF652A" d="M285.3,182L285.3,182c-3.4,0-6.2-2.8-6.2-6.2v-42.9c0-3.4,2.8-6.2,6.2-6.2h0c3.4,0,6.2,2.8,6.2,6.2v42.9
	C291.5,179.2,288.7,182,285.3,182z"/>
<path fill="#E34F26" d="M804.5,175.2H312.3c-6.6,0-12-5.4-12-12v-18.3c0-6.6,5.4-12,12-12h492.2c6.6,0,12,5.4,12,12v18.3
	C816.5,169.8,811.1,175.2,804.5,175.2z"/>
<g>
	<path fill="#E34F26" d="M415,175.4v148.9h-41.2V175.4h-52.3v-35.6h145.7v35.6H415z"/>
	<path fill="#E34F26" d="M471.1,198.5h28.1v125.8h-28.1V198.5z"/>
	<path fill="#E34F26" d="M626.3,215c12,11,18,26.3,18,45.8c0,19.6-5.8,35-17.5,46.4c-11.7,11.4-29.6,17.1-53.5,17.1h-43V198.5h44.5
		C597,198.5,614.3,204,626.3,215z M605.7,289.8c6.9-6.5,10.3-15.9,10.3-28.3c0-12.4-3.5-21.9-10.3-28.5c-6.9-6.7-17.5-10-31.8-10
		h-15.7v76.5H576C588.9,299.5,598.8,296.3,605.7,289.8z"/>
	<path fill="#E34F26" d="M718.4,324.3h-28.1v-49.7l-43.6-76.1h30.4l27.2,46.8l27.2-46.8H762l-43.6,76.1V324.3z"/>
</g>
<g>
	<path fill="#E34F26" d="M370.6,55.4h14v62.9h-14V93.5h-25v24.8h-14V55.4h14v26.3h25V55.4z"/>
	<path fill="#E34F26" d="M487.3,67.5v50.8h-14V67.5h-17.8V55.4h49.7v12.2H487.3z"/>
	<path fill="#E34F26" d="M632.3,78.7l-17,34.4h-8.4L590,78.7v39.6h-14V55.4h19l16.2,34.6l16.3-34.6h18.9v62.9h-14V78.7z"/>
	<path fill="#E34F26" d="M722.4,118.3V55.4h14v50.4h26.8v12.5H722.4z"/>
</g>
<path fill="#E34F26" d="M266.5,242.6L45.6,262.3V45.8l220.9,19.7l25,88.8"/>
<path fill="#EF652A" d="M272.3,143.8l-19.7-71.5L63.4,55.5v88.3"/>
<path fill="#EBEBEB" d="M145.5,143.8v36l-27.8,2.4v-38.4H90.8v0.5V212l7.2-0.5l74.9-6.7v-61H145.5z M216.1,143.8v0.5l-8.2,30.2
	l-21.6,1.9v14.4v12.5L229,200l15.4-55.7v-0.5H216.1z"/>
<path fill="#FFFFFF" d="M145.5,144.3h27.4v-33.6l35,3.4l8.2,30.2h28.3L229,88.6l-4.8-0.5l-71.5-6.2l-7.2-1v7.7V144.3z M90.8,144.3
	h16.8h10.1l0,0V78.5l0,0l0,0l-5.8-0.5L98,76.6l-7.2-0.5V144.3z"/>
<path fill="#EF652A" d="M297.7,182L297.7,182c-3.4,0-6.2-2.8-6.2-6.2v-42.9c0-3.4,2.8-6.2,6.2-6.2h0c3.4,0,6.2,2.8,6.2,6.2v42.9
	C303.9,179.2,301.1,182,297.7,182z"/>
<path fill="#EF652A" d="M310.1,182L310.1,182c-3.4,0-6.2-2.8-6.2-6.2v-42.9c0-3.4,2.8-6.2,6.2-6.2h0c3.4,0,6.2,2.8,6.2,6.2v42.9
	C316.3,179.2,313.5,182,310.1,182z"/>
</svg>
