<?xml version="1.0" encoding="utf-8"?>
<!-- Generator: Adobe Illustrator 18.0.0, SVG Export Plug-In . SVG Version: 6.00 Build 0)  -->
<!DOCTYPE svg PUBLIC "-//W3C//DTD SVG 1.1//EN" "http://www.w3.org/Graphics/SVG/1.1/DTD/svg11.dtd">
<svg version="1.1" id="Layer_1" xmlns="http://www.w3.org/2000/svg" xmlns:xlink="http://www.w3.org/1999/xlink" x="0px" y="0px"
	 viewBox="0 0 860 369.1" enable-background="new 0 0 860 369.1" xml:space="preserve">
<path opacity="0.8" fill="#FFFFFF" enable-background="new    " d="M285.3,182L285.3,182c-3.4,0-6.2-2.8-6.2-6.2v-42.9
	c0-3.4,2.8-6.2,6.2-6.2h0c3.4,0,6.2,2.8,6.2,6.2v42.9C291.5,179.2,288.7,182,285.3,182z"/>
<path opacity="0.8" fill="#FFFFFF" enable-background="new    " d="M804.5,133.3H316.6v-0.4c0-3.4-3-6.2-6.4-6.2
	c-3.4,0-6.3,2.8-6.3,6.2c0-3.4-2.8-6.2-6.2-6.2c-3.4,0-6.2,2.8-6.2,6.2v42.9c0,3.4,2.7,6.2,6.1,6.2c3.4,0,6.2-2.8,6.2-6.2
	c0,3.4,3,6.2,6.4,6.2c3.4,0,6.4-2.8,6.4-6.2v-0.5h5h52v149h41v-149h53h336.8c6.6,0,12.2-5.5,12.2-12.1v-18.3
	C816.6,138.3,811.1,133.3,804.5,133.3z"/>
<path opacity="0.8" fill="#FFFFFF" enable-background="new    " d="M471.1,198.5h28.1v125.8h-28.1V198.5z"/>
<path opacity="0.8" fill="#FFFFFF" enable-background="new    " d="M626.3,215c12,11,18,26.3,18,45.8c0,19.6-5.8,35-17.5,46.4
	c-11.7,11.4-29.6,17.1-53.5,17.1h-43V198.5h44.5C597,198.5,614.3,204,626.3,215z M605.7,289.8c6.9-6.5,10.3-15.9,10.3-28.3
	c0-12.4-3.5-21.9-10.3-28.5c-6.9-6.7-17.5-10-31.8-10h-15.7v76.5H576C588.9,299.5,598.8,296.3,605.7,289.8z"/>
<path opacity="0.8" fill="#FFFFFF" enable-background="new    " d="M718.4,324.3h-28.1v-49.7l-43.6-76.1h30.4l27.2,46.8l27.2-46.8
	H762l-43.6,76.1V324.3z"/>
<g opacity="0.8" enable-background="new    ">
	<path fill="#FFFFFF" d="M370.6,55.4h14v62.9h-14V93.5h-25v24.8h-14V55.4h14v26.3h25V55.4z"/>
	<path fill="#FFFFFF" d="M487.3,67.5v50.8h-14V67.5h-17.8V55.4h49.7v12.2H487.3z"/>
	<path fill="#FFFFFF" d="M632.3,78.7l-17,34.4h-8.4L590,78.7v39.6h-14V55.4h19l16.2,34.6l16.3-34.6h18.9v62.9h-14V78.7z"/>
	<path fill="#FFFFFF" d="M722.4,118.3V55.4h14v50.4h26.8v12.5H722.4z"/>
</g>
<g>
	<path fill="#FFFFFF" d="M145.6,189.6v-35.8h-27.7v38.2L145.6,189.6z M45.6,262l220.8-19.7l24.5-88.4l-24.5-88.5L45.6,45.8L45.6,262
		z M252.4,82.4l19.8,71.5h-28.1l0,0l-15.4,55.5l-43.5,3.9v-27.2l22.6-2l8.1-30.2l0,0h-43.3v60.5l-81.9,7.3v-67.8H63.7V65.5
		L252.4,82.4z"/>
	<path opacity="0.8" fill="#FFFFFF" enable-background="new    " d="M172.7,120.5v33.3H216l-8.2-30.2L172.7,120.5z M63.7,153.9h27.1
		V86.1l27.1,2.4v65.4h27.7V90.9l83.2,7.4l15.4,55.5h28.1l-19.8-71.5L63.7,65.5L63.7,153.9L63.7,153.9z"/>
	<g opacity="0.2">
		<polygon fill="#FFFFFF" points="90.8,153.9 90.8,221.7 172.7,214.4 172.7,153.9 145.6,153.9 145.6,189.6 117.9,192.1 117.9,153.9 
					"/>
		<polygon fill="#FFFFFF" points="216,153.9 216,153.9 207.8,184.1 185.3,186.1 185.3,213.3 228.8,209.4 244.2,153.9 244.1,153.9 		
			"/>
	</g>
</g>
</svg>
